<svg width="725" height="725" viewBox="0 0 725 725" fill="none" xmlns="http://www.w3.org/2000/svg">
<ellipse cx="248.444" cy="250.497" rx="248.444" ry="250.497" transform="matrix(0.587595 0.809155 0.809155 -0.587595 13.9258 308.969)" fill="white"/>
<path d="M447.132 312.083C433.274 293.011 437.511 266.265 456.552 252.43C475.625 238.573 502.371 242.809 516.228 261.882C530.063 280.923 525.849 307.7 506.776 321.557C487.735 335.392 460.966 331.125 447.132 312.083Z" fill="#0F1321"/>
<path d="M213.811 574.911C179.49 551.811 160.447 525.282 154.245 516.549L153.266 515.203C69.2828 399.609 95 237.238 210.593 153.254C321.138 72.939 474.403 93.0171 561.063 196.006C561.427 196.441 561.824 196.858 562.238 197.304L562.176 197.349C565.753 201.628 569.225 206.024 572.541 210.587C656.527 326.184 630.807 488.552 515.214 572.536C418.908 642.501 290.727 626.698 213.811 574.911ZM292.051 477.56C311.124 463.703 315.338 436.926 301.503 417.884C287.646 398.811 260.9 394.575 241.827 408.432C222.786 422.267 218.519 449.035 232.376 468.108C246.214 487.147 273.01 491.394 292.051 477.56ZM557.237 221.701C554.034 217.293 550.694 213.079 547.229 208.956C514.017 171.485 480.253 169.495 436.671 178.523C397.681 186.598 364.315 217.669 353.558 255.841C343.582 291.293 356.125 323.622 358.754 329.753C362.466 338.469 364.863 342.152 368.797 348.276C371.149 351.897 374.061 356.427 377.935 363.106C393.35 389.602 397.846 420.06 396.873 439.709C393.167 514.948 326.958 556.5 318.649 561.417C316.028 563.089 293.1 576.985 259.648 578.51C331.037 609.944 428.269 612.315 504.098 557.222C611.24 479.379 635.105 328.877 557.237 221.701Z" fill="#0F1321"/>
</svg>
